<svg t="1701866726899" class="icon" viewBox="0 0 1024 1024" version="1.1" xmlns="http://www.w3.org/2000/svg" p-id="1541"
  id="mx_n_1701866726900" width="25" height="25">
  <path
    d="M512.648533 750.933333c-146.090667 0-277.538133-86.2208-338.5344-222.3104-3.8912-11.639467-3.8912-21.6064 0.9216-35.6352C235.1104 359.287467 366.592 273.066667 512.6144 273.066667c146.090667 0 277.572267 86.2208 338.5344 222.3104 3.8912 11.639467 3.8912 21.6064-0.9216 35.6352C790.186667 664.712533 658.705067 750.933333 512.682667 750.933333zM221.866667 510.088533c51.882667 115.4048 165.0688 189.6448 290.781866 189.6448s238.933333-74.24 289.860267-187.2896c0.341333-1.1264 0.341333 0.170667 0.853333 1.365334l0.034134 0.1024C751.547733 398.506667 638.327467 324.266667 512.682667 324.266667c-125.713067 0-238.933333 74.24-289.860267 187.2896-0.375467 1.1264-0.375467-0.170667-0.887467-1.365334v-0.1024z m290.781866 134.178134A131.345067 131.345067 0 0 1 380.1088 512a131.345067 131.345067 0 0 1 132.539733-132.266667A131.345067 131.345067 0 0 1 645.12 512a131.345067 131.345067 0 0 1-132.5056 132.266667z m0-51.2c45.6704 0 81.237333-35.498667 81.237334-81.066667a80.110933 80.110933 0 0 0-81.237334-81.066667A80.110933 80.110933 0 0 0 431.4112 512a80.110933 80.110933 0 0 0 81.237333 81.066667z"
    fill="#515151" p-id="1542"></path>
</svg>