<svg t="1708349010327" class="icon" viewBox="0 0 1024 1024" version="1.1" xmlns="http://www.w3.org/2000/svg" p-id="3718" width="20" height="20"><path d="M900.3 223.8h-777c-33.1 0-60 26.9-60 60v456c0 33.1 26.9 60 60 60h777c33.1 0 60-26.9 60-60v-456c0-33.2-26.8-60-60-60zM896.2 740H128V283h768.2v457z" fill="#515151" p-id="3719"></path><path d="M245.4 421h81c4.1 0 7.5-3.4 7.5-7.5v-81c0-4.1-3.4-7.5-7.5-7.5h-81c-4.1 0-7.5 3.4-7.5 7.5v81c0 4.1 3.3 7.5 7.5 7.5zM395.2 420.6h81c4.2 0 7.5-3.4 7.5-7.5v-81c0-4.1-3.4-7.5-7.5-7.5h-81c-4.1 0-7.5 3.4-7.5 7.5v81c0 4.1 3.3 7.5 7.5 7.5zM545.6 420.6h81c4.1 0 7.5-3.4 7.5-7.5v-81c0-4.1-3.4-7.5-7.5-7.5h-81c-4.1 0-7.5 3.4-7.5 7.5v81c0 4.1 3.4 7.5 7.5 7.5zM696.1 420.6h81c4.1 0 7.5-3.4 7.5-7.5v-81c0-4.1-3.4-7.5-7.5-7.5h-81c-4.1 0-7.5 3.4-7.5 7.5v81c0 4.1 3.3 7.5 7.5 7.5zM244.7 555.2h81c4.1 0 7.5-3.4 7.5-7.5v-81c0-4.1-3.4-7.5-7.5-7.5h-81c-4.1 0-7.5 3.4-7.5 7.5v81c0 4.1 3.4 7.5 7.5 7.5zM395.2 555.2h81c4.2 0 7.5-3.4 7.5-7.5v-81c0-4.1-3.4-7.5-7.5-7.5h-81c-4.1 0-7.5 3.4-7.5 7.5v81c0 4.1 3.3 7.5 7.5 7.5zM626.7 459.2h-81c-4.1 0-7.5 3.4-7.5 7.5v81c0 4.1 3.4 7.5 7.5 7.5h81c4.1 0 7.5-3.4 7.5-7.5v-81c0-4.2-3.3-7.5-7.5-7.5zM696.1 555h81c4.1 0 7.5-3.4 7.5-7.5v-81c0-4.1-3.4-7.5-7.5-7.5h-81c-4.1 0-7.5 3.4-7.5 7.5v81c0 4.1 3.3 7.5 7.5 7.5zM749.3 611.9h-477c-4.1 0-7.5 3.4-7.5 7.5v66.2c0 4.1 3.4 7.5 7.5 7.5h477c4.1 0 7.5-3.4 7.5-7.5v-66.2c0-4.1-3.4-7.5-7.5-7.5z" fill="#515151" p-id="3720"></path></svg>