<svg t="1702827463461" class="icon" viewBox="0 0 1024 1024" version="1.1" xmlns="http://www.w3.org/2000/svg" p-id="5951"
  id="mx_n_1702827463462" width="30" height="30">
  <path
    d="M930.843832 779.557732c4.260024 5.960759 8.365528 20.079314 7.597025 25.994024-22.043039 32.04995-53.839209 37.44175-104.873536 44.325531-56.579623 7.664563-124.521015 6.014994-191.514825 12.245905-5.92699 0.532119-11.0558 3.883447-16.709567 4.583388-14.96483 1.798972-29.459962-2.153036-44.084031-1.556449-12.649088 0.556679-25.698289 4.806469-37.97387 4.611018-28.192086-0.448208-60.367903-6.484691-88.160899 1.500167-32.30373-5.9055-70.631664 2.104941-103.354949 1.553379-22.163789-0.400113-44.874023-4.932336-66.867944-4.606925-21.665439 0.352017-41.835827 5.335519-62.307068 4.606925-10.659781-0.400113-21.37482-2.02717-33.44881-3.052522-18.729573-1.629103-43.26027-5.208629-62.313208-12.219299-13.245675-4.909823-33.668821-15.730263-37.998429-22.940478-3.315512-5.51255-2.318812-15.050788-4.561899-25.997094-2.888793-14.07046-10.761088-20.74037-4.555759-33.608445-21.940708-93.215008-16.237823-206.960609-12.153808-308.739667 1.542122-38.746466-0.249687-76.945463 3.037173-111.583354 0.521886-5.622044-0.124843-9.756201 4.558829-13.761422-4.90573-26.836205 2.512217-56.172347 4.558829-82.519412 11.703553-5.606695 23.060205-1.601474 31.901571 6.096858 6.598278 43.701315 0.349971 85.97 0 131.454938-0.398066 55.497988-4.780887 110.632703-6.076392 166.604482-0.421602 17.660218 2.191922 36.941354-4.558829 53.470819 8.618285 8.764618 2.817162 27.096125 3.040243 42.825364 0.471744 34.154891 9.665127 74.55502 16.736173 103.930047-14.770402 19.361977-1.593288 41.751916 7.571443 58.053184 31.800263 10.066263 65.869197 14.128789 101.859899 13.774725 172.482353-1.702782 330.72847-4.459568 506.10064-13.774725 39.723723-2.104941 79.540567-7.66354 117.05088-16.782222 15.042601-1.323135 34.391275 0.75213 41.040718-10.719132 3.091408-5.307889-1.046842-12.520151 1.49812-18.329461 3.288906-7.53665 11.255345-3.707438 15.190981-10.722202 2.038426-84.095303 3.910053-186.077999 6.100952-284.258089 2.041496-91.493807 9.141194-175.032432-15.19712-246.078535-9.632381-28.124548-14.06739-41.412179-45.594431-44.341904-16.661472-1.526773-37.009915-1.215688-56.260351-1.51347-27.143197-0.413416-53.53938 3.218298-80.537268 6.120394-28.220738 3.006474-55.69037 0.064468-86.644359 0-72.327282-0.173962-151.594627 22.565948-227.972155 24.446785-31.627325 0.787946-71.877027 0.910743-104.878652 3.065825-10.558473 0.674359-23.033599 6.359848-33.44267 7.626701-10.912537 1.339508-24.703635 0.462534-38.002522 1.526773-19.328207 1.565658-37.259602 1.789763-54.714136 4.595668-20.24816 3.26537-46.969755 13.395078-60.794621 12.234649-6.349615-0.549515-23.661909-8.668427-24.302499-16.830317-0.901533-11.157107 24.924669-18.310018 36.456307-21.3871 34.991955-9.290597 62.98245-10.730389 98.822726-13.752212 18.054191-1.551332 33.769105-6.220678 48.608068-7.647167 62.813604-6.04774 139.816372-3.933589 197.59224-12.223393 48.437176-6.971785 92.294033-14.872732 130.71918-16.814967 19.432585-0.992607 38.779212 2.177596 57.757448 1.540076 4.185322-0.162706 9.463536-3.095501 13.669324-3.068895 4.685719 0.023536 10.337439 3.204995 15.217586 3.068895 34.167171-0.978281 70.603011-8.17724 107.890242-9.191336 39.640836-1.066285 93.193519-0.387833 120.088052 25.979698 4.956895 10.949376 14.646582 20.751626 19.747763 33.637098 3.685949 9.251711 3.961218 16.853853 7.594979 25.983791 9.541307 23.845081 14.022365 59.09184 15.21861 90.172719 0.871857 22.899546 3.084245 36.177967 1.517563 58.086953-5.077645 70.744227-2.438539 132.917242-3.037173 198.662619-0.401136 42.769083-4.040013 90.408079-4.585435 143.701866C951.839005 757.086951 958.287881 776.84904 930.843832 779.557732z"
    fill="#ffffff" p-id="5952"></path>
  <path
    d="M815.339168 368.421954c-93.096305-13.158694-182.354188 18.709107-279.651165 12.231579-1.969864-4.915963-16.48444-7.574512-15.21554-19.869536 1.962701-18.718317 37.974893-10.781554 65.349357-13.749142 36.982286-3.990894 94.733595-14.649652 141.357472-16.815991 26.523073-1.214664 90.300632-11.256368 98.792027 13.760398C829.582567 354.672812 818.051953 362.460172 815.339168 368.421954z"
    fill="#ffffff" p-id="5953"></path>
  <path
    d="M379.110899 461.671755c-6.421246-0.038886-9.780761 2.956332-15.192004 0 0.427742-6.548136-4.628414-7.560186-3.036149-15.299451 3.638877-8.744151 24.257473-20.814048 25.850761-1.515516C384.84346 452.196962 377.120568 454.496331 379.110899 461.671755z"
    fill="#ffffff" p-id="5954"></path>
  <path
    d="M338.098833 438.733323c-6.104021 25.220405 3.40761 60.34846-15.21861 70.312392-19.900236-8.267291-1.840928-62.763462 3.037173-73.354682C331.893504 434.81406 334.735226 437.004959 338.098833 438.733323z"
    fill="#ffffff" p-id="5955"></path>
  <path
    d="M280.341385 441.803241c0.454348 15.925714-16.662495 32.145118-27.369348 18.330484C248.665964 441.653839 267.988032 433.724239 280.341385 441.803241z"
    fill="#ffffff" p-id="5956"></path>
  <path
    d="M827.489906 480.017588c1.067308 10.719132-3.88754 19.186991-9.111518 27.495214-82.836637-2.051729-184.493921 6.591115-267.499403 3.054569-16.161075-0.671289-36.832883 4.489244-44.078914-13.739932 4.310166-21.032012 28.739555-18.458397 47.089481-19.863397 17.588587-1.378393 38.557154-3.327792 56.265468-3.069919 66.76766 1.032516 139.983171-4.670369 199.110827-6.123464C813.192272 474.022037 822.934147 474.410893 827.489906 480.017588z"
    fill="#ffffff" p-id="5957"></path>
  <path
    d="M377.592312 518.225795c-0.667196 15.601326-14.790868 17.723663-21.265326 27.495214-27.666106 8.389064-98.122785 4.431939-86.618776-29.015847 15.117302 1.153266 28.961612 12.898775 47.094598 13.739932 19.952424 0.909719 41.567721-6.504134 54.712089-16.809851C374.628818 514.089591 374.508068 517.770424 377.592312 518.225795z"
    fill="#ffffff" p-id="5958"></path>
  <path
    d="M818.377364 599.23583c-1.342578 12.025894-3.112897 15.431457-10.635221 25.974581-14.595416 4.128017-28.117384-2.607384-44.084031-3.053546-24.00574-0.680499-49.7818 5.281283-77.522608 7.637957-36.637432 3.101641-82.510202 3.707438-118.549 1.526773-21.766746-1.329275-58.746986-1.079588-59.266825-29.028127 10.030447-14.148231 23.302729-8.812713 41.038672-7.637957 63.952544 4.086062 141.408637-3.883447 205.187219-7.658424C773.597485 585.869405 802.484396 584.160483 818.377364 599.23583z"
    fill="#ffffff" p-id="5959"></path>
  <path
    d="M768.216941 738.309282c-61.989843 6.638187-114.358561 4.505617-167.186743-1.530866-25.921369-2.953262-87.683015 4.408403-82.07632-24.444738 4.082992-21.005406 50.375318-12.222369 71.443146-10.712993 35.215036 2.552126 74.744331 8.010441 113.989147 7.655354 36.09201-0.346901 67.26908-8.558933 97.278557-7.655354 13.399171 0.420579 27.743878 6.935969 27.346835 19.877723C828.335157 742.937696 791.232121 741.335199 768.216941 738.309282z"
    fill="#ffffff" p-id="5960"></path>
  <path
    d="M383.696334 619.096157c15.261589 26.996864 25.429159 54.900378 28.886911 87.12736 1.269923 12.124132-1.465374 24.24417 3.016707 36.666084-3.835352 3.809769-5.380544 9.862625-7.596002 15.302521-15.267728 7.087419-32.923854 2.777253-48.640814 4.582365-43.057655 4.935406-83.72589 19.690458-129.175011 12.222369-15.244192-12.19474-12.383028-36.112476-7.596002-58.101279 8.642844-39.768749 28.564569-90.538039 47.115064-114.602108-49.040926-14.196327-92.692099-45.777603-104.896048-94.780667-12.204973-49.058322 22.786982-98.66923 47.121204-126.859269 9.336646-10.806113 17.107633-15.925714 30.40652-24.452925 20.59813-13.208836 46.495964-31.497365 77.504188-36.672224 25.396413-4.236488 53.791114 2.564405 77.521584 9.16473 31.358195 17.691941 64.62895 51.161217 69.908186 102.403275 5.480828 52.996005-8.588609 113.536846-30.378891 149.812027-3.638877 6.061043-8.097422 10.720156-16.736173 12.219299-2.140757 2.905166-4.009314 6.108115-4.558829 10.67206C404.068314 608.001471 395.77237 615.468536 383.696334 619.096157zM354.8084 385.252271c12.103666-3.13234 15.493879-15.010879 18.254759-27.510564-1.548262 0-3.066849 0-4.558829 0C366.615307 368.800577 353.085152 375.562585 354.8084 385.252271zM327.465658 386.763694c8.438183-1.14815 9.411347-9.863648 13.670348-15.273868-0.323365-1.711991-1.693572-2.376117-3.037173-3.068895C334.385255 374.36941 330.523297 380.193045 327.465658 386.763694zM275.785625 383.722428c0.424672 3.110851 4.110621 2.981914 4.555759 6.111185 10.410094-1.724271 13.272281-11.119245 16.709567-19.872606C287.121811 371.679138 280.266683 376.524492 275.785625 383.722428zM426.232103 440.276469c-1.174756-14.250562-9.066493-55.087643-21.266349-48.916083-16.83748 8.494465-44.010353 10.787694-72.971965 15.283078-8.743128 1.372254-16.534582 5.669116-24.305569 6.111185-27.697829 1.587148-38.20309-7.154957-51.676963-16.809851-52.948933 32.858362-71.201645 119.600959-18.228153 158.970618 28.285207 21.032012 83.524299 7.262404 107.909685 30.549783 26.941606 3.154853 37.352723-10.320043 51.670823-19.857257C420.777881 536.174586 430.289512 488.660432 426.232103 440.276469zM341.136006 616.019075c-19.301602 26.999934-35.415604 57.122999-57.754379 81.012082-1.696642 17.686824-14.542204 24.119327-19.776416 38.193881 11.408841-2.606361 12.57848-15.422248 18.254759-22.890336 22.73991-30.020734 50.633191-60.755736 66.872037-96.315626C346.192162 616.019075 343.674828 616.019075 341.136006 616.019075zM319.844074 730.671325c3.036149 0 6.074346 0 9.141194 0 5.327332-23.563672 31.425733-37.022195 34.93465-67.273173-1.941212-0.047072-2.111081-1.952468-4.555759-1.499144C345.943498 684.540681 326.567195 701.240015 319.844074 730.671325z"
    fill="#ffffff" p-id="5961"></path>
</svg>