<svg t="1702826504735" class="icon" viewBox="0 0 1024 1024" version="1.1" xmlns="http://www.w3.org/2000/svg" p-id="2680"
  width="27" height="27">
  <path
    d="M59.557968 528.080651a384.347421 384.347421 0 0 1 15.088019-139.365645 109.189608 109.189608 0 0 1-43.675844-21.043816 423.258627 423.258627 0 0 0-18.264443 176.688639 96.086855 96.086855 0 0 1 46.852268-16.279178zM161.997674 595.579682l158.821248-94.10159a111.96898 111.96898 0 0 1-24.22024-39.705312L135.792168 555.87437a96.483908 96.483908 0 0 1 26.205506 39.705312z m505.05157-24.22024l-158.821249-105.616131a109.189608 109.189608 0 0 1-26.602559 39.705312l150.483133 99.660334H372.038775l21.440868-68.293137a114.351299 114.351299 0 0 1-45.661109-14.690965l-26.205506 81.792943H164.777045a89.734005 89.734005 0 0 1 0 48.043427h141.747965l-23.823188 74.645987h2.382319a70.675456 70.675456 0 0 1 43.27879 14.293912L357.347809 651.961225h285.878248a75.04304 75.04304 0 0 1 16.279178-75.440093z m28.587825-397.053122l-215.202792 30.573091 7.941062-34.146569h-4.764637a98.866227 98.866227 0 0 1-42.087631-11.911593l-11.911594 50.822799-224.732066 31.76425a116.336565 116.336565 0 0 1 6.749903 39.705312v8.735169l206.07057-29.381931-11.911594 52.808065a100.45444 100.45444 0 0 1 45.661109 10.720434l17.073284-71.072509 233.864289-32.955409a119.115936 119.115936 0 0 1-6.749903-48.837534z m-508.227996 39.705312a439.537805 439.537805 0 0 1 202.497092-107.204342 97.278015 97.278015 0 0 1-5.16169-47.646375 486.390074 486.390074 0 0 0-235.055448 120.307096 119.115936 119.115936 0 0 1 37.720046 30.57309zM127.056999 708.342769a99.26328 99.26328 0 0 1-47.646375 18.661496 233.864288 233.864288 0 0 0 134.601008 86.557581 72.263668 72.263668 0 0 1 6.35285-48.043428 183.041489 183.041489 0 0 1-93.307483-57.175649zM208.849942 304.936797a108.792555 108.792555 0 0 1-20.249709 43.27879L294.613416 397.053121a121.101202 121.101202 0 0 1 20.646762-39.705312z m701.592865 29.778984a98.866227 98.866227 0 0 1 47.646375-10.720434A359.730128 359.730128 0 0 0 904.884064 238.231873a112.366033 112.366033 0 0 1-32.955409 35.337728 323.995347 323.995347 0 0 1 38.514152 61.14618z m-132.615742 266.819698a82.587049 82.587049 0 0 1 4.764637 26.205506 79.410624 79.410624 0 0 1-3.573478 21.837922c83.778209-8.338116 158.821249-39.705312 188.600233-126.659946a98.072121 98.072121 0 0 1-48.837534-6.749903c-25.014347 59.557968-81.792943 79.410624-140.953858 85.366421z m79.410624-177.879799a93.307484 93.307484 0 0 1 2.779372-23.823187h-74.645987l23.823187-107.998449a112.763086 112.763086 0 0 1-46.852268-9.926328l-26.205506 119.115937h-222.746801a109.189608 109.189608 0 0 1 0 48.043427h212.026367c-7.941062 36.528887-15.882125 72.660721-23.426134 107.998449a73.057774 73.057774 0 0 1 46.455215 10.720435c8.338116-39.705312 17.073284-79.410624 25.808453-119.115937h84.175261a122.292361 122.292361 0 0 1-2.779371-25.014347z m-476.463746 341.068632l-29.778984 5.16169a65.910818 65.910818 0 0 1 6.35285 28.587825 73.057774 73.057774 0 0 1-7.941062 32.558356l-51.616906 192.967817h49.63164L408.964715 794.106243a24.22024 24.22024 0 0 0-28.190772-29.381931z m321.215976-620.991082a109.983715 109.983715 0 0 1 25.014346-39.705312 635.284994 635.284994 0 0 0-144.130283-48.043428 102.042652 102.042652 0 0 1-4.764637 47.646375 555.87437 555.87437 0 0 1 123.880574 40.102365zM655.931756 674.990306a219.173323 219.173323 0 0 1-106.807289 55.587437c-51.219853 14.690965-95.689802 27.396665-111.571927 85.763475l-56.778597 207.261729h49.631641l53.205118-195.350136c8.735169-32.558356 39.705312-41.690578 79.410624-52.411012a242.202404 242.202404 0 0 0 136.586274-77.425359 71.072509 71.072509 0 0 1-39.705312-20.249709z m152.071346-415.317565a79.410624 79.410624 0 1 0-79.410624-79.410624 79.410624 79.410624 0 0 0 79.410624 79.410624z m-323.995347 163.982939a79.410624 79.410624 0 1 0-79.410624 79.410625 79.410624 79.410624 0 0 0 79.410624-79.410625z m-158.821249 374.818147a39.705312 39.705312 0 1 0-39.705312 39.705312 39.705312 39.705312 0 0 0 39.705312-39.705312z m158.821249-662.681659a67.896084 67.896084 0 1 0-67.896084-67.896084 67.896084 67.896084 0 0 0 67.896084 67.896084zM956.103916 357.347809a67.896084 67.896084 0 1 0 67.896084 67.896084A68.293137 68.293137 0 0 0 956.103916 357.347809z m-245.775882 230.290811a39.705312 39.705312 0 0 0-39.705312 39.705312 39.705312 39.705312 0 0 0 39.705312 39.705312 39.705312 39.705312 0 1 0 0-79.410624z m-574.535866 39.705312a67.896084 67.896084 0 1 0-67.896084 67.896084 67.896084 67.896084 0 0 0 67.896084-67.896084z m-35.734781-267.613804a79.410624 79.410624 0 1 0-79.410625-79.410624 79.410624 79.410624 0 0 0 79.410625 79.410624z"
    fill="#ffffff" p-id="2681"></path>
</svg>