<svg xmlns="http://www.w3.org/2000/svg" xmlns:xlink="http://www.w3.org/1999/xlink" width="139" height="141" viewBox="0 0 139 141" fill="none"><g opacity="1"  transform="translate(0 0)"><g opacity="1"  transform="translate(0 0)"><path id="矩形 1" fill-rule="evenodd" style="fill:#FFFFFF" opacity="1" d="M34 141L105 141C123.78 141 139 125.78 139 107L139 34C139 15.22 123.78 0 105 0L34 0C15.22 0 0 15.22 0 34L0 107C0 125.78 15.22 141 34 141Z"></path></g><path id="圆形 2" fill-rule="evenodd" style="fill:#FFB403" opacity="1" d="M58.8956 52.7512C37.7653 50.4066 18.7292 65.6403 16.3847 86.7706C14.0402 107.901 29.2738 126.937 50.4041 129.282C71.5344 131.626 90.5705 116.392 92.915 95.2621C95.2596 74.1318 80.0259 55.0957 58.8956 52.7512Z"></path><path id="拼合图形" fill-rule="evenodd" style="fill:#FFB403" opacity="1" d="M83.0452 72.4932C77.7186 79.1922 68.8336 80.9915 63.2002 76.5121C57.5668 72.0327 57.3182 62.9708 62.6449 56.2718L86.9763 25.6721C92.303 18.973 101.188 17.1737 106.821 21.6531C112.455 26.1325 112.703 35.1944 107.377 41.8934L83.0452 72.4932Z"></path><path id="拼合图形" fill-rule="evenodd" style="fill:#FFB403" opacity="1" d="M88.7227 109.173C83.9037 115.233 76.1921 117.121 71.4986 113.389C66.8049 109.656 66.9067 101.718 71.7257 95.6573L93.7384 67.9737C98.5575 61.9131 106.269 60.0255 110.963 63.7576C115.656 67.4897 115.554 75.4283 110.735 81.4889L88.7227 109.173Z"></path><path id="拼合图形" fill-rule="evenodd" style="fill:#FFB403" opacity="1" d="M60.1948 46.0995C57.6368 49.3165 52.303 49.3322 48.2816 46.1345C44.2601 42.9368 43.0737 37.7366 45.6317 34.5196L57.3162 19.8249C59.8742 16.6079 65.2079 16.5922 69.2295 19.79C73.2509 22.9876 74.4373 28.1878 71.8793 31.4048L60.1948 46.0995Z"></path><path id="圆形 1" fill-rule="evenodd" style="fill:#D19D6C" opacity="1" d="M55.5759 65.8673C41.3035 64.2836 28.4508 74.569 26.8672 88.8414C25.2836 103.114 35.569 115.966 49.8414 117.55C64.1138 119.134 76.9665 108.848 78.5501 94.5759C80.1337 80.3035 69.8483 67.4509 55.5759 65.8673Z"></path><path id="圆形 1" fill-rule="evenodd" style="fill:#B68053" opacity="1" d="M57.9821 66.5934C49.3948 65.6406 60.5247 69.5217 66.4275 78.2559C70.352 84.0541 70.4318 93.3999 66.4308 99.8077C63.1782 105.001 59.7277 107.988 56.1126 110.555C48.5555 115.915 42.3294 116.441 52.0001 117.514C66.3023 119.101 79.4223 109.671 81.0093 95.3683C82.5962 81.0661 72.2942 68.1814 57.9821 66.5934Z"></path><path id="圆形 3" fill-rule="evenodd" style="fill:#CCCCCC" opacity="1" d="M46 86C41.58 86 38 89.58 38 94C38 98.42 41.58 102 46 102C50.42 102 54 98.42 54 94C54 89.58 50.42 86 46 86Z"></path><path id="圆形 3" fill-rule="evenodd" style="fill:#CCCCCC" opacity="1" d="M58.5 70C56.01 70 54 72.01 54 74.5C54 76.99 56.01 79 58.5 79C60.99 79 63 76.99 63 74.5C63 72.01 60.99 70 58.5 70Z"></path><path id="圆形 3" fill-rule="evenodd" style="fill:#CCCCCC" opacity="1" d="M62 101C58.69 101 56 103.69 56 107C56 110.31 58.69 113 62 113C65.31 113 68 110.31 68 107C68 103.69 65.31 101 62 101Z"></path></g></svg>