<svg t="1702364128559" class="icon" viewBox="0 0 1024 1024" version="1.1" xmlns="http://www.w3.org/2000/svg" p-id="2389"
  width="17" height="17">
  <path
    d="M368.827141 909.543724a40.15942 40.15942 0 0 1-26.103623-10.039855l-6.023913-6.023913a394.566305 394.566305 0 0 1-103.410507-377.498551L131.886561 335.264013l-23.091666 23.091667a40.15942 40.15942 0 0 1-28.111595 12.047826 40.15942 40.15942 0 0 1-28.111594-12.047826l-40.15942-40.15942a40.15942 40.15942 0 0 1 0-57.227174L261.400692 11.98068a40.15942 40.15942 0 0 1 57.227174 0l40.15942 40.15942a40.15942 40.15942 0 0 1 0 57.227174l-23.091666 23.091667 180.717391 101.402536a394.566305 394.566305 0 0 1 377.498551 102.406522l6.023913 6.023913a40.15942 40.15942 0 0 1-2.007971 54.215217L396.938736 897.495898a40.15942 40.15942 0 0 1-28.111595 12.047826z m-78.310869-454.805435l13.051811 5.019927a40.15942 40.15942 0 0 1 16.063768 47.187319c-37.147464 103.410507-18.071739 218.868841 50.199276 304.207609l441.753624-440.749638c-84.334783-68.271015-200.797102-87.346739-304.20761-50.199275a40.15942 40.15942 0 0 1-53.211231-29.11558L249.352866 176.634303a40.15942 40.15942 0 0 1-18.071739-20.07971l-75.298914 75.298913a40.15942 40.15942 0 0 1 20.079711 18.071739z"
    fill="#ffffff" p-id="2390"></path>
  <path
    d="M983.266273 1023.998072a40.15942 40.15942 0 0 1-23.091667-7.027898L552.556489 726.818362a40.15942 40.15942 0 0 1-5.019927-61.243116l117.466304-117.466305a40.15942 40.15942 0 0 1 61.243116 5.019928l289.147827 407.618116a40.15942 40.15942 0 0 1-33.131522 63.251087zM637.895258 688.666912l174.693478 124.494204-124.494203-174.693479z"
    fill="#ffffff" p-id="2391"></path>
</svg>