<svg t="1701876514063" class="icon" viewBox="0 0 1024 1024" version="1.1" xmlns="http://www.w3.org/2000/svg" p-id="4249"
  width="16" height="16">
  <path
    d="M459.861333 564.138667a42.666667 42.666667 0 0 1 0 60.330666L230.997333 853.333333H384a42.666667 42.666667 0 0 1 0 85.333334H126.634667l-2.304-0.170667-1.28-0.128-1.578667-0.213333a42.794667 42.794667 0 0 1-0.981333-0.170667L119.466667 937.813333a42.368 42.368 0 0 1-25.173334-15.573333l3.498667 3.925333A43.008 43.008 0 0 1 85.333333 896.853333V640a42.666667 42.666667 0 0 1 85.333334 0v152.917333l228.864-228.778666a42.666667 42.666667 0 0 1 60.330666 0zM896 85.333333h0.853333c0.896 0 1.834667 0.085333 2.730667 0.170667L896 85.333333a43.008 43.008 0 0 1 7.509333 0.682667l0.981334 0.170667a42.368 42.368 0 0 1 17.664 8.106666l0.085333 0.042667 0.426667 0.384c2.56 2.048 4.906667 4.394667 6.912 6.954667l-3.413334-3.84a43.008 43.008 0 0 1 12.458667 28.8v-0.042667L938.666667 128v256a42.666667 42.666667 0 0 1-85.333334 0V230.997333l-228.864 228.864a42.666667 42.666667 0 0 1-60.330666-60.330666L792.917333 170.666667H640a42.666667 42.666667 0 0 1 0-85.333334h256z"
    fill="#ffffff" p-id="4250"></path>
</svg>