<svg t="1702826678481" class="icon" viewBox="0 0 1024 1024" version="1.1" xmlns="http://www.w3.org/2000/svg" p-id="3813"
  width="27" height="27">
  <path
    d="M847.36 0H176.64c-84.48 0-153.6 69.12-153.6 153.6v716.8c0 84.48 69.12 153.6 153.6 153.6h670.72c84.48 0 153.6-69.12 153.6-153.6V153.6c0-84.48-69.12-153.6-153.6-153.6z m102.4 870.4c0 56.32-46.08 102.4-102.4 102.4H176.64c-56.32 0-102.4-46.08-102.4-102.4V153.6c0-56.32 46.08-102.4 102.4-102.4h670.72c56.32 0 102.4 46.08 102.4 102.4v716.8z"
    p-id="3814" fill="#ffffff"></path>
  <path
    d="M834.56 678.4H394.24c-15.36 0-25.6 10.24-25.6 25.6s10.24 25.6 25.6 25.6h442.88c15.36 0 25.6-10.24 25.6-25.6s-12.8-25.6-28.16-25.6zM253.44 614.4c-48.64 0-89.6 40.96-89.6 89.6S204.8 793.6 253.44 793.6s89.6-40.96 89.6-89.6c-2.56-48.64-40.96-89.6-89.6-89.6z m0 128c-20.48 0-38.4-17.92-38.4-38.4S230.4 665.6 253.44 665.6c20.48 0 38.4 17.92 38.4 38.4-2.56 20.48-17.92 38.4-38.4 38.4zM834.56 302.08H394.24c-15.36 0-25.6 10.24-25.6 25.6s10.24 25.6 25.6 25.6h442.88c15.36 0 25.6-10.24 25.6-25.6s-12.8-25.6-28.16-25.6zM238.08 391.68c5.12 2.56 10.24 5.12 15.36 5.12h5.12c7.68-2.56 12.8-5.12 15.36-12.8l64-115.2c7.68-12.8 2.56-28.16-10.24-35.84-12.8-7.68-28.16-2.56-35.84 10.24l-51.2 89.6-38.4-25.6c-12.8-7.68-28.16-5.12-35.84 7.68-7.68 12.8-5.12 28.16 7.68 35.84l64 40.96z"
    p-id="3815" fill="#ffffff"></path>
</svg>