<svg t="1701865393151" class="icon" viewBox="0 0 1024 1024" version="1.1" xmlns="http://www.w3.org/2000/svg"
  p-id="13512" width="20" height="20">
  <path
    d="M515 961.2c-12 0-23.9-3.1-34.6-9.2L152 762.3c-21.3-12.3-34.6-35.3-34.6-59.9V323c0-24.6 13.3-47.6 34.6-59.9L480.4 73.5c21.3-12.3 47.8-12.3 69.2 0l328.5 189.7c21.3 12.3 34.6 35.3 34.6 59.9v379.3c0 24.6-13.3 47.6-34.6 59.9L549.6 951.9c-10.6 6.2-22.6 9.3-34.6 9.3z m0-837.2c-1.6 0-3.2 0.4-4.7 1.3L181.9 314.9c-2.9 1.7-4.7 4.8-4.7 8.1v379.3c0 3.3 1.8 6.4 4.7 8.1l328.5 189.7c2.9 1.7 6.5 1.7 9.3 0l328.5-189.7c2.9-1.7 4.7-4.8 4.7-8.1V323c0-3.3-1.8-6.4-4.7-8.1L519.7 125.3c-1.4-0.8-3.1-1.3-4.7-1.3z"
    fill="#515151" p-id="13513"></path>
  <path
    d="M515 643.8c-72.3 0-131-58.8-131-131.1s58.8-131.1 131-131.1c72.3 0 131.1 58.8 131.1 131.1S587.3 643.8 515 643.8z m0-202.3c-39.3 0-71.2 32-71.2 71.2s32 71.2 71.2 71.2c39.3 0 71.2-32 71.2-71.2s-31.9-71.2-71.2-71.2z"
    fill="#515151" p-id="13514"></path>
</svg>